<svg width="36" height="27" viewBox="0 0 36 27" fill="none" xmlns="http://www.w3.org/2000/svg">
<path d="M5.3998 5.40001C5.3998 3.91079 7.01418 2.70001 8.9998 2.70001H25.1998C27.1854 2.70001 28.7998 3.91079 28.7998 5.40001V7.42501H25.1998V5.40001H8.9998V13.5H15.2998V17.55H6.1198C3.7348 17.55 1.7998 16.0988 1.7998 14.31C1.7998 13.8628 2.28355 13.5 2.8798 13.5H5.3998V5.40001ZM31.6067 13.5802C32.1129 13.9599 32.3998 14.4745 32.3998 15.0103V22.275C32.3998 23.393 31.1904 24.3 29.6998 24.3H20.6998C19.2092 24.3 17.9998 23.393 17.9998 22.275V11.475C17.9998 10.357 19.2092 9.45001 20.6998 9.45001H24.9804C25.6948 9.45001 26.3811 9.66517 26.8873 10.0449C28.0123 10.8886 29.5817 12.0656 31.6067 13.5844V13.5802ZM25.1998 14.175C25.1998 14.5463 25.6048 14.85 26.0998 14.85H29.4804L25.1998 11.6395V14.175Z" fill="white"/>
</svg>
