<svg width="24" height="16" viewBox="0 0 24 16" fill="none" xmlns="http://www.w3.org/2000/svg">
<path d="M2 5.7447L10.7167 8.76436C11.125 8.90464 11.5583 8.97829 12 8.97829C12.4417 8.97829 12.875 8.90464 13.2833 8.76436L23.3833 5.26423C23.7583 5.13446 24 4.82934 24 4.48915C24 4.14895 23.7583 3.84383 23.3833 3.71407L13.2833 0.213936C12.875 0.07365 12.4417 0 12 0C11.5583 0 11.125 0.07365 10.7167 0.213936L0.616667 3.71407C0.241667 3.84383 0 4.14895 0 4.48915V14.8703C0 15.3367 0.445833 15.712 1 15.712C1.55417 15.712 2 15.3367 2 14.8703V5.7447ZM4 8.25933V12.3452C4 14.2039 7.58333 15.712 12 15.712C16.4167 15.712 20 14.2039 20 12.3452V8.25582L14.0458 10.3215C13.3958 10.546 12.7042 10.6617 12 10.6617C11.2958 10.6617 10.6042 10.546 9.95417 10.3215L4 8.25582V8.25933Z" fill="#FEFBFA"/>
</svg>
